<svg width="675" height="272" viewBox="0 0 675 272" fill="none" xmlns="http://www.w3.org/2000/svg">
<g clip-path="url(#clip0_15_41)">
<path d="M149.174 223.704H30.2336V186.295L141.358 27.135H196.75V182.213H226.655V223.704H196.75V271.994H149.174V223.704ZM152.229 182.213V78.1475L82.5634 182.213H152.229Z" fill="#CCCCCC"/>
<path d="M348.645 19.3132C418.651 19.3132 440.394 73.0488 440.394 144.804C440.394 217.241 418.645 271.318 348.645 271.318C278.644 271.318 256.895 217.241 256.895 144.804C256.889 73.0488 278.638 19.3132 348.645 19.3132ZM348.645 63.5274C308.543 63.5274 303.79 102.295 303.79 144.81C303.79 189.024 308.55 227.11 348.645 227.11C388.746 227.11 393.5 189.018 393.5 144.81C393.5 102.295 388.739 63.5274 348.645 63.5274Z" fill="#CCCCCC"/>
<path d="M593.312 223.704H474.371V186.295L585.496 27.135H640.888V182.213H670.793V223.704H640.888V271.994H593.312V223.704ZM596.367 182.213V78.1475L526.708 182.213H596.367Z" fill="#CCCCCC"/>
<path d="M121.513 206.966H2.57307V169.557L113.698 10.3969H169.089V165.475H198.995V206.966H169.089V255.256H121.513V206.966ZM124.569 165.475V61.4094L54.9029 165.475H124.569Z" fill="white"/>
<path d="M320.984 2.57509C390.991 2.57509 412.733 56.3107 412.733 128.066C412.733 200.503 390.984 254.58 320.984 254.58C250.984 254.58 229.235 200.503 229.235 128.066C229.228 56.3107 250.977 2.57509 320.984 2.57509ZM320.984 46.7893C280.883 46.7893 276.129 85.5573 276.129 128.072C276.129 172.286 280.889 210.372 320.984 210.372C361.085 210.372 365.839 172.28 365.839 128.072C365.839 85.5573 361.079 46.7893 320.984 46.7893Z" fill="white"/>
<path d="M565.651 206.966H446.711V169.557L557.835 10.3969H613.227V165.475H643.133V206.966H613.227V255.256H565.651V206.966ZM568.707 165.475V61.4094L499.047 165.475H568.707Z" fill="white"/>
<path d="M171.656 257.837H118.94V209.548H73.281C71.8594 209.548 70.708 208.395 70.708 206.973C70.708 205.55 71.8594 204.398 73.281 204.398H124.086V252.687H166.516V226.009C166.516 224.586 167.668 223.434 169.089 223.434C170.511 223.434 171.662 224.586 171.662 226.009V257.837H171.656ZM201.561 209.541H184.457C183.035 209.541 181.884 208.389 181.884 206.966C181.884 205.543 183.035 204.391 184.457 204.391H196.415V168.05H166.51V81.1539C166.51 79.7311 167.661 78.5788 169.083 78.5788C170.505 78.5788 171.656 79.7311 171.656 81.1539V162.9H201.561V209.541ZM42.9059 209.541H0V168.745L30.0728 125.671C30.8897 124.505 32.4914 124.222 33.6558 125.033C34.8201 125.851 35.1031 127.454 34.2926 128.619L5.14614 170.368V204.391H42.9059C44.3276 204.391 45.479 205.543 45.479 206.966C45.479 208.389 44.3276 209.541 42.9059 209.541ZM73.2746 140.606C72.7793 140.606 72.284 140.465 71.8466 140.168C70.6629 139.377 70.3477 137.78 71.139 136.595L127.142 52.9373V113.439C127.142 114.862 125.99 116.014 124.569 116.014C123.147 116.014 121.996 114.862 121.996 113.439V69.875L75.4167 139.46C74.9214 140.207 74.1044 140.606 73.2746 140.606ZM73.2746 70.8599C72.7664 70.8599 72.2518 70.7119 71.8015 70.3964C70.6372 69.5788 70.3542 67.9758 71.1647 66.8106L112.347 7.82182H171.65V26.9418C171.65 27.135 171.63 27.3281 171.585 27.5148L171.65 61.4094C171.65 62.8321 170.505 63.9845 169.083 63.9909C169.083 63.9909 169.083 63.9909 169.076 63.9909C167.655 63.9909 166.503 62.8386 166.503 61.4223L166.439 26.8131C166.439 26.6135 166.458 26.4204 166.503 26.2337V12.972H115.029L75.3845 69.7591C74.8892 70.4737 74.0916 70.8599 73.2746 70.8599Z" fill="black"/>
<path d="M320.984 257.155C287.232 257.155 262.234 244.608 246.68 219.861C233.21 198.43 226.662 168.404 226.662 128.072C226.662 88.0937 233.21 58.3128 246.687 37.0362C262.241 12.457 287.245 0 320.984 0C360.397 0 387.775 16.9827 402.364 50.4717C402.93 51.7786 402.338 53.2914 401.032 53.8644C399.727 54.4309 398.215 53.8386 397.642 52.5318C383.761 20.6458 358.686 5.15017 320.984 5.15017C260.974 5.15017 231.801 45.3602 231.801 128.066C231.801 211.46 260.974 252.004 320.978 252.004C322.399 252.004 323.551 253.157 323.551 254.58C323.551 256.002 322.406 257.155 320.984 257.155ZM320.984 212.947C311.554 212.947 303.487 210.874 297.003 206.779C295.8 206.02 295.44 204.43 296.199 203.226C296.958 202.022 298.547 201.661 299.75 202.421C305.481 206.033 312.429 207.79 320.991 207.79C356.203 207.79 363.273 177.282 363.273 128.066C363.273 126.643 364.424 125.49 365.846 125.49C367.267 125.49 368.419 126.643 368.419 128.066C368.419 147.997 367.518 170.554 360.835 186.778C353.572 204.385 340.539 212.947 320.984 212.947ZM277.081 157.949C275.762 157.949 274.637 156.939 274.521 155.593C273.858 147.907 273.55 139.158 273.55 128.066C273.55 108.675 274.45 86.6774 281.134 70.4995C288.448 52.8086 301.48 44.2078 320.978 44.2078C322.399 44.2078 323.551 45.3602 323.551 46.7829C323.551 48.2056 322.399 49.358 320.978 49.358C303.558 49.358 292.404 56.7034 285.887 72.463C279.545 87.804 278.689 109.177 278.689 128.059C278.689 139.003 278.992 147.61 279.641 155.143C279.764 156.559 278.715 157.808 277.3 157.93C277.229 157.943 277.158 157.949 277.081 157.949Z" fill="black"/>
<path d="M615.8 257.837H563.078V234.7C563.078 233.277 564.229 232.125 565.651 232.125C567.073 232.125 568.224 233.277 568.224 234.7V252.687H610.654V235.318C610.654 233.895 611.805 232.743 613.227 232.743C614.649 232.743 615.8 233.895 615.8 235.318V257.837ZM613.227 220.511C611.805 220.511 610.654 219.359 610.654 217.936V204.398H640.559V185.657C640.559 184.235 641.711 183.082 643.133 183.082C644.554 183.082 645.706 184.235 645.706 185.657V209.548H615.8V217.936C615.8 219.359 614.649 220.511 613.227 220.511ZM486.13 209.541H444.144V168.745L480.129 117.199C480.945 116.033 482.547 115.75 483.712 116.561C484.876 117.379 485.159 118.982 484.348 120.147L449.29 170.361V204.385H486.13C487.552 204.385 488.703 205.537 488.703 206.96C488.703 208.382 487.552 209.541 486.13 209.541ZM613.227 168.05C611.805 168.05 610.654 166.898 610.654 165.475V12.972H559.18L543.96 34.7765C543.143 35.9418 541.541 36.225 540.377 35.4139C539.213 34.6027 538.93 32.9933 539.74 31.8281L556.497 7.82826H615.8V165.482C615.8 166.898 614.649 168.05 613.227 168.05ZM519.625 168.05H494.222L566.571 59.9802C567.362 58.8021 568.957 58.4802 570.141 59.2721C571.318 60.0639 571.64 61.6605 570.849 62.845L503.865 162.9H519.625C521.047 162.9 522.198 164.052 522.198 165.475C522.198 166.898 521.047 168.05 519.625 168.05Z" fill="black"/>
<path d="M124.569 168.16H83.5605C82.1388 168.16 80.9874 167.007 80.9874 165.585C80.9874 164.162 82.1388 163.009 83.5605 163.009H124.569C125.99 163.009 127.142 164.162 127.142 165.585C127.142 167.007 125.99 168.16 124.569 168.16Z" fill="black"/>
<path d="M568.706 168.05C567.285 168.05 566.133 166.898 566.133 165.475V123.572C566.133 122.149 567.285 120.997 568.706 120.997C570.128 120.997 571.28 122.149 571.28 123.572V165.475C571.28 166.898 570.128 168.05 568.706 168.05Z" fill="black"/>
<path d="M121.513 257.837H16.5641C15.1425 257.837 13.9911 256.685 13.9911 255.262C13.9911 253.839 15.1425 252.687 16.5641 252.687H121.513C122.935 252.687 124.086 253.839 124.086 255.262C124.086 256.685 122.935 257.837 121.513 257.837Z" fill="black"/>
<path d="M202.655 257.837H184.039C182.617 257.837 181.466 256.685 181.466 255.262C181.466 253.839 182.617 252.687 184.039 252.687H202.655C204.077 252.687 205.228 253.839 205.228 255.262C205.228 256.685 204.077 257.837 202.655 257.837Z" fill="black"/>
<path d="M411.904 257.837H336.641C335.22 257.837 334.068 256.685 334.068 255.262C334.068 253.839 335.22 252.687 336.641 252.687H411.904C413.325 252.687 414.477 253.839 414.477 255.262C414.477 256.685 413.319 257.837 411.904 257.837Z" fill="black"/>
<path d="M565.651 257.837H509.307C507.886 257.837 506.734 256.685 506.734 255.262C506.734 253.839 507.886 252.687 509.307 252.687H565.651C567.073 252.687 568.224 253.839 568.224 255.262C568.224 256.685 567.073 257.837 565.651 257.837Z" fill="black"/>
<path d="M672.427 257.837H629.418C627.996 257.837 626.845 256.685 626.845 255.262C626.845 253.839 627.996 252.687 629.418 252.687H672.427C673.849 252.687 675 253.839 675 255.262C675 256.685 673.842 257.837 672.427 257.837Z" fill="black"/>
</g>
<defs>
<clipPath id="clip0_15_41">
<rect width="675" height="272" fill="white"/>
</clipPath>
</defs>
</svg>
